<svg xmlns="http://www.w3.org/2000/svg" width="26.314" height="32.847" viewBox="0 0 26.314 32.847">
  <g id="layer2" transform="translate(-2.108 -0.529)">
    <path id="path1996" d="M15.278.529a5.474,5.474,0,0,0-5.46,4.931H8.149A3.121,3.121,0,0,0,5.138,8.37L2.131,30.309a2.886,2.886,0,0,0,3.011,3.068H25.388A2.882,2.882,0,0,0,28.4,30.309L25.393,8.37a3.12,3.12,0,0,0-3.011-2.909H20.736A5.473,5.473,0,0,0,15.278.529Zm0,1.1a4.359,4.359,0,0,1,4.357,3.835H10.919a4.36,4.36,0,0,1,4.358-3.835Zm-4.389,9.23a4.389,4.389,0,0,0,8.777,0,.547.547,0,1,1,1.095,0,5.484,5.484,0,0,1-10.967,0A.547.547,0,1,1,10.888,10.855Z" transform="translate(0)" fill="#1e61d6"/>
  </g>
</svg>
